<?xml version="1.0" standalone="no"?>
<!DOCTYPE svg PUBLIC "-//W3C//DTD SVG 20010904//EN"
 "http://www.w3.org/TR/2001/REC-SVG-20010904/DTD/svg10.dtd">
<svg version="1.0" xmlns="http://www.w3.org/2000/svg"
 width="260.000000pt" height="260.000000pt" viewBox="0 0 260.000000 260.000000"
 preserveAspectRatio="xMidYMid meet">
<metadata>
Created by potrace 1.11, written by Peter Selinger 2001-2013
</metadata>
<g transform="translate(0.000000,260.000000) scale(0.100000,-0.100000)"
fill="#000000" stroke="none">
<path d="M390 1295 l0 -925 598 0 c345 0 627 5 667 10 229 33 398 118 485 244
89 130 95 353 14 492 -45 77 -167 180 -242 205 l-33 11 43 27 c236 152 275
479 79 671 -104 102 -255 160 -470 180 -58 5 -339 10 -623 10 l-518 0 0 -925z
m1030 453 c49 -25 70 -56 70 -106 0 -48 -24 -87 -67 -108 -32 -16 -66 -19
-225 -22 l-188 -4 0 131 0 131 183 0 c170 0 186 -2 227 -22z m90 -683 c68 -40
88 -132 42 -194 -36 -49 -94 -60 -329 -61 l-213 0 0 141 0 141 233 -4 c212 -3
235 -5 267 -23z"/>
</g>
</svg>
